<?xml version="1.0" encoding="UTF-8"?>
<svg xmlns="http://www.w3.org/2000/svg" xmlns:xlink="http://www.w3.org/1999/xlink" viewBox="0 0 64 64" width="64px" height="64px">
<g id="surface1086320">
<path style=" stroke:none;fill-rule:nonzero;fill:rgb(100%,100%,100%);fill-opacity:1;" d="M 32 12 C 24.46875 12 17.8125 12.78125 13.75 13.375 C 10.390625 13.867188 7.679688 16.398438 7.0625 19.75 C 6.539062 22.601562 6 26.773438 6 32 C 6 37.226562 6.539062 41.398438 7.0625 44.25 C 7.679688 47.601562 10.390625 50.140625 13.75 50.625 C 17.828125 51.21875 24.507812 52 32 52 C 39.492188 52 46.171875 51.21875 50.25 50.625 C 53.609375 50.140625 56.320312 47.601562 56.9375 44.25 C 57.460938 41.390625 58 37.210938 58 32 C 58 26.789062 57.46875 22.609375 56.9375 19.75 C 56.320312 16.398438 53.609375 13.867188 50.25 13.375 C 46.1875 12.78125 39.53125 12 32 12 Z M 32 16 C 39.265625 16 45.757812 16.742188 49.6875 17.3125 C 51.375 17.5625 52.695312 18.835938 53 20.5 C 53.484375 23.140625 54 27.054688 54 32 C 54 36.9375 53.484375 40.859375 53 43.5 C 52.695312 45.164062 51.382812 46.445312 49.6875 46.6875 C 45.742188 47.257812 39.21875 48 32 48 C 24.78125 48 18.25 47.257812 14.3125 46.6875 C 12.625 46.445312 11.304688 45.164062 11 43.5 C 10.515625 40.859375 10 36.953125 10 32 C 10 27.039062 10.515625 23.140625 11 20.5 C 11.304688 18.835938 12.617188 17.5625 14.3125 17.3125 C 18.234375 16.742188 24.734375 16 32 16 Z M 26 20.5625 L 26 43.4375 L 29 41.75 L 43 33.75 L 46 32 L 43 30.25 L 29 22.25 Z M 30 27.4375 L 37.9375 32 L 30 36.5625 Z M 30 27.4375 "/>
</g>
</svg>
