<?xml version="1.0" encoding="UTF-8"?>
<svg xmlns="http://www.w3.org/2000/svg" xmlns:xlink="http://www.w3.org/1999/xlink" viewBox="0 0 64 64" width="64px" height="64px">
<g id="surface1188572">
<path style=" stroke:none;fill-rule:nonzero;fill:rgb(100%,100%,100%);fill-opacity:1;" d="M 16 10 C 12.710938 10 10 12.710938 10 16 L 10 48 C 10 51.289062 12.710938 54 16 54 L 48 54 C 51.289062 54 54 51.289062 54 48 L 54 16 C 54 12.710938 51.289062 10 48 10 Z M 42 16 L 48 16 L 48 22 L 42 22 Z M 32 24 C 36.445312 24 40 27.554688 40 32 C 40 36.445312 36.445312 40 32 40 C 27.554688 40 24 36.445312 24 32 C 24 27.554688 27.554688 24 32 24 Z M 14 28 L 20.6875 28 C 20.242188 29.25 20 30.601562 20 32 C 20 38.601562 25.398438 44 32 44 C 38.601562 44 44 38.601562 44 32 C 44 30.601562 43.757812 29.25 43.3125 28 L 50 28 L 50 48 C 50 49.132812 49.132812 50 48 50 L 16 50 C 14.867188 50 14 49.132812 14 48 Z M 14 28 "/>
</g>
</svg>
