<?xml version="1.0" encoding="UTF-8"?>
<svg xmlns="http://www.w3.org/2000/svg" xmlns:xlink="http://www.w3.org/1999/xlink" viewBox="0 0 64 64" width="64px" height="64px">
<g id="surface1097427">
<path style=" stroke:none;fill-rule:nonzero;fill:rgb(100%,100%,100%);fill-opacity:1;" d="M 19.222656 10 C 14.152344 10 10 14.152344 10 19.222656 L 10 44.777344 C 10 49.847656 14.152344 54 19.222656 54 L 44.777344 54 C 49.847656 54 54 49.847656 54 44.777344 L 54 19.222656 C 54 14.152344 49.847656 10 44.777344 10 Z M 19.222656 14 L 44.777344 14 C 47.683594 14 50 16.316406 50 19.222656 L 50 44.777344 C 50 47.683594 47.683594 50 44.777344 50 L 19.222656 50 C 16.316406 50 14 47.683594 14 44.777344 L 14 19.222656 C 14 16.316406 16.316406 14 19.222656 14 Z M 34 18 L 34 38 C 34 40.234375 32.234375 42 30 42 C 27.765625 42 26 40.234375 26 38 C 26 35.765625 27.765625 34 30 34 L 30 30 C 25.605469 30 22 33.605469 22 38 C 22 42.394531 25.605469 46 30 46 C 34.394531 46 38 42.394531 38 38 L 38 25.777344 C 39.65625 27.058594 41.617188 27.96875 43.855469 28 L 43.914062 24 C 40.621094 23.953125 38 21.308594 38 18 Z M 34 18 "/>
</g>
</svg>
