<?xml version="1.0" encoding="UTF-8"?>
<svg xmlns="http://www.w3.org/2000/svg" xmlns:xlink="http://www.w3.org/1999/xlink" viewBox="0 0 64 64" width="64px" height="64px">
<g id="surface1092989">
<path style=" stroke:none;fill-rule:nonzero;fill:rgb(100%,100%,100%);fill-opacity:1;" d="M 14 10 C 11.8125 10 10 11.8125 10 14 L 10 50 C 10 52.1875 11.8125 54 14 54 L 50 54 C 52.1875 54 54 52.1875 54 50 L 54 14 C 54 11.8125 52.1875 10 50 10 Z M 14 14 L 50 14 L 50 50 L 39.625 50 L 39.625 36.5 L 44.8125 36.5 L 45.5625 30.5 L 39.625 30.5 L 39.625 26.625 C 39.625 24.875 40.054688 23.6875 42.5625 23.6875 L 45.8125 23.6875 L 45.8125 18.25 C 45.257812 18.179688 43.335938 18.0625 41.125 18.0625 C 36.515625 18.0625 33.375 20.835938 33.375 26 L 33.375 30.5 L 28.125 30.5 L 28.125 36.5 L 33.375 36.5 L 33.375 50 L 14 50 Z M 14 14 "/>
</g>
</svg>
